<svg width="20" height="20" viewBox="0 0 20 20" fill="none" xmlns="http://www.w3.org/2000/svg">
<path d="M10.7646 17.0187C11.0106 16.6775 11.4802 16.5713 11.8523 16.7861C12.2246 17.001 12.3678 17.4609 12.1952 17.8447L12.1564 17.9201C11.9378 18.2984 11.6236 18.6126 11.2453 18.8311C10.8669 19.0495 10.4372 19.165 10.0003 19.1651C9.56328 19.1651 9.13376 19.0496 8.75528 18.8311C8.42403 18.6398 8.14191 18.3754 7.93014 18.0587L7.84342 17.9201L7.80451 17.8447C7.632 17.4609 7.7752 17.001 8.14737 16.7861C8.51956 16.5712 8.98909 16.6775 9.2351 17.0187L9.28133 17.0901L9.34134 17.1808C9.40741 17.2669 9.49066 17.3394 9.58528 17.394C9.71136 17.4667 9.8547 17.5051 10.0003 17.5051C10.1459 17.505 10.2892 17.4668 10.4153 17.394C10.5414 17.3212 10.6456 17.2161 10.7184 17.0901L10.7646 17.0187Z" fill="#36E270"/>
<path d="M17.4997 6.66004C17.4997 5.06149 16.9809 3.64652 16.1599 2.40466L15.9912 2.15907L15.9459 2.08693C15.7393 1.72053 15.8397 1.24943 16.1907 1.0016C16.5417 0.753764 17.0193 0.817073 17.2954 1.13454L17.3481 1.201L17.5451 1.49036C18.5113 2.95249 19.1597 4.6792 19.1597 6.66004C19.1597 7.11843 18.7881 7.49004 18.3297 7.49004C17.8712 7.49004 17.4997 7.11843 17.4997 6.66004Z" fill="#36E270"/>
<path d="M14.1498 6.67499C14.1498 5.57448 13.7129 4.51906 12.9348 3.74081C12.1565 2.96253 11.1005 2.52499 9.99981 2.52499C8.89923 2.52505 7.84383 2.96258 7.06561 3.74081C6.2874 4.51907 5.84979 5.57439 5.84979 6.67499L5.84655 7.03487C5.81101 8.79855 5.51248 10.0592 5.04735 11.0439C4.55727 12.0813 3.90692 12.751 3.3606 13.315L16.6398 13.315C16.0923 12.7507 15.4429 12.0806 14.9531 11.0439C14.4567 9.99333 14.1498 8.62889 14.1498 6.67499ZM15.8098 6.67499C15.8098 8.45509 16.0886 9.56248 16.4534 10.3346C16.7276 10.9151 17.0656 11.3415 17.4503 11.7587L17.8499 12.1786L17.8678 12.1981C18.0843 12.436 18.2272 12.7316 18.2787 13.0491C18.3302 13.3665 18.2888 13.6921 18.1588 13.9861C18.0286 14.2802 17.8155 14.5304 17.546 14.7059C17.31 14.8595 17.0393 14.9508 16.7597 14.9709L16.6398 14.975L3.35979 14.975C3.03807 14.9747 2.72304 14.8809 2.4536 14.7051C2.18415 14.5293 1.97143 14.2789 1.84164 13.9845C1.71189 13.6902 1.67053 13.3642 1.72248 13.0467C1.77446 12.7293 1.91753 12.434 2.13424 12.1964L2.15126 12.1778L2.55087 11.7587C2.93501 11.3417 3.27199 10.9151 3.54622 10.3346C3.88817 9.6107 4.15458 8.59221 4.18655 7.00083L4.18979 6.67499C4.18979 5.13408 4.80235 3.65591 5.89194 2.56632C6.98145 1.47698 8.45908 0.865048 9.99981 0.86499C11.5406 0.86499 13.0189 1.47681 14.1085 2.56632C15.198 3.65591 15.8098 5.13408 15.8098 6.67499Z" fill="#36E270"/>
<path d="M0.839844 6.66001C0.839844 4.54711 1.57712 2.72289 2.65142 1.20097C2.91579 0.826557 3.43442 0.73725 3.80888 1.00157C4.18329 1.26595 4.2726 1.78458 4.00827 2.15904C3.0906 3.4591 2.49984 4.95495 2.49984 6.66001C2.49984 7.1184 2.12824 7.49001 1.66984 7.49001C1.21145 7.49001 0.839844 7.1184 0.839844 6.66001Z" fill="#36E270"/>
</svg>
