<svg width="40" height="40" viewBox="0 0 40 40" fill="none" xmlns="http://www.w3.org/2000/svg">
<path d="M23.0014 19.6467C23.6536 18.9945 24.7108 18.9947 25.363 19.6467C26.0151 20.2988 26.0151 21.3559 25.363 22.0081L12.003 35.3681C11.0866 36.2844 9.86462 36.824 8.57652 36.8881L8.31722 36.8946C6.93488 36.8944 5.60893 36.3455 4.63146 35.3681C3.65403 34.3906 3.10498 33.0648 3.10498 31.6824C3.10498 30.2999 3.65403 28.9741 4.63146 27.9967L17.9914 14.6366C18.6436 13.9845 19.7008 13.9846 20.353 14.6366C21.0051 15.2888 21.0051 16.3459 20.353 16.9981L6.99296 30.3581C6.64189 30.7093 6.44498 31.1859 6.44498 31.6824C6.44498 32.1789 6.64189 32.6555 6.99296 33.0067C7.34404 33.3577 7.82071 33.5544 8.31722 33.5546L8.50312 33.5464C8.93158 33.5038 9.3343 33.3136 9.64146 33.0067L23.0014 19.6467Z" fill="white"/>
<path d="M35.4992 15.4792C36.1514 14.8271 37.2085 14.8271 37.8606 15.4792C38.5127 16.1314 38.5127 17.1885 37.8606 17.8407L27.8406 27.8607C27.1885 28.513 26.1314 28.513 25.4792 27.8607C24.8269 27.2085 24.8269 26.1514 25.4792 25.4993L35.4992 15.4792Z" fill="white"/>
<path d="M22.1591 2.13928C22.8112 1.4871 23.8684 1.4871 24.5205 2.13928C25.1726 2.79145 25.1726 3.84859 24.5205 4.50076L14.5005 14.5208C13.8483 15.1729 12.7912 15.1729 12.139 14.5208C11.4869 13.8686 11.4869 12.8114 12.139 12.1593L22.1591 2.13928Z" fill="white"/>
<path d="M13.8092 10.4693C14.4206 9.85792 15.3875 9.82019 16.0435 10.3552L16.1707 10.4693L29.5306 23.8294L29.6448 23.9565C30.1799 24.6125 30.1421 25.5794 29.5306 26.1908C28.9192 26.8022 27.9523 26.8399 27.2965 26.305L27.1692 26.1908L13.8092 12.8308L13.695 12.7036C13.16 12.0477 13.1978 11.0808 13.8092 10.4693Z" fill="white"/>
<path d="M20.4693 3.8093C21.0807 3.19788 22.0476 3.16016 22.7036 3.69514L22.8307 3.8093L36.1907 17.1694L36.3049 17.2964C36.84 17.9524 36.8023 18.9193 36.1907 19.5307C35.5793 20.1421 34.6124 20.1799 33.9566 19.645L33.8293 19.5307L20.4693 6.17078L20.3551 6.04358C19.8202 5.38765 19.8579 4.42072 20.4693 3.8093Z" fill="white"/>
</svg>
