<svg width="24" height="24" viewBox="0 0 24 24" fill="none" xmlns="http://www.w3.org/2000/svg">
<path d="M14 21L14 13L10 13L10 21C10 21.5523 9.55228 22 9 22C8.44772 22 8 21.5523 8 21L8 13C8 12.4696 8.21087 11.961 8.58594 11.5859C8.96101 11.2109 9.46957 11 10 11L14 11C14.5304 11 15.039 11.2109 15.4141 11.5859C15.7891 11.961 16 12.4696 16 13L16 21C16 21.5523 15.5523 22 15 22C14.4477 22 14 21.5523 14 21Z" fill="#8000FF"/>
<path d="M20 9.99963L19.9941 9.89123C19.9824 9.78328 19.9531 9.67768 19.9072 9.57873C19.846 9.4468 19.7566 9.32985 19.6455 9.23596L19.6406 9.23108L12.6455 3.23596C12.4875 3.10242 12.2926 3.02257 12.0879 3.00452L12 3.00061C11.7637 3.00061 11.535 3.08439 11.3545 3.23694L11.3535 3.23596L4.35938 9.23108L4.35449 9.23596C4.24342 9.32985 4.15399 9.4468 4.09277 9.57873C4.0316 9.7106 4 9.85427 4 9.99963L4 18.9997C4 19.2649 4.10543 19.5201 4.29297 19.7077C4.48048 19.8951 4.73491 19.9997 5 19.9997L19 19.9997C19.2651 19.9997 19.5195 19.8951 19.707 19.7077C19.8946 19.5201 20 19.2649 20 18.9997V9.99963ZM22 18.9997C22 19.7953 21.6837 20.5591 21.1211 21.1217C20.5585 21.6842 19.7955 21.9997 19 21.9997L5 21.9997C4.20447 21.9997 3.44149 21.6842 2.87891 21.1217C2.3163 20.5591 2 19.7953 2 18.9997L2 9.99963C2 9.56353 2.09479 9.13254 2.27832 8.73694C2.46197 8.34114 2.73025 7.99029 3.06348 7.70862L10.0586 1.7135L10.0635 1.70959L10.2734 1.54748C10.7771 1.19295 11.3798 1.00061 12 1.00061L12.2646 1.01233C12.7905 1.05889 13.2948 1.24362 13.7266 1.54748L13.9365 1.70959L13.9414 1.7135L20.9365 7.70862L21.0586 7.81702C21.3356 8.07832 21.561 8.39058 21.7217 8.73694C21.9052 9.13254 22 9.56353 22 9.99963V18.9997Z" fill="#8000FF"/>
</svg>
