<svg width="64" height="64" viewBox="0 0 64 64" fill="none" xmlns="http://www.w3.org/2000/svg">
<path d="M53.3601 34.655C53.3601 33.1804 52.1647 31.985 50.69 31.985L13.31 31.985C11.8355 31.985 10.64 33.1804 10.64 34.655L10.64 53.345C10.64 54.8197 11.8355 56.015 13.31 56.015L50.69 56.015C52.1647 56.015 53.3601 54.8197 53.3601 53.345L53.3601 34.655ZM58.7001 53.345C58.7001 57.7689 55.114 61.355 50.69 61.355L13.31 61.355C8.88626 61.355 5.30005 57.7689 5.30005 53.345L5.30005 34.655C5.30005 30.2311 8.88626 26.645 13.31 26.645L50.69 26.645C55.114 26.645 58.7001 30.2311 58.7001 34.655L58.7001 53.345Z" fill="#DEE1E6"/>
<path d="M42.68 29.345L42.68 18.665C42.68 15.8325 41.554 13.1168 39.551 11.1139C37.5482 9.11104 34.8326 7.98502 32 7.98502C29.1674 7.98502 26.4518 9.11104 24.4489 11.1139C22.446 13.1168 21.32 15.8325 21.32 18.665L21.32 29.345C21.32 30.8197 20.1246 32.015 18.65 32.015C17.1754 32.015 15.98 30.8197 15.98 29.345L15.98 18.665C15.98 14.4162 17.669 10.3427 20.6733 7.33837C23.6777 4.33404 27.7512 2.64502 32 2.64502C36.2488 2.64502 40.3224 4.33404 43.3267 7.33837C46.3309 10.3427 48.02 14.4162 48.02 18.665V29.345C48.02 30.8197 46.8246 32.015 45.35 32.015C43.8753 32.015 42.68 30.8197 42.68 29.345Z" fill="#DEE1E6"/>
</svg>
