<svg width="64" height="64" viewBox="0 0 64 64" fill="none" xmlns="http://www.w3.org/2000/svg">
<path d="M53.35 42.685L53.35 11.1247L26.65 15.5756L26.65 48.025C26.65 49.4996 25.4546 50.695 23.98 50.695C22.5054 50.695 21.31 49.4996 21.31 48.025L21.31 13.315C21.31 12.0097 22.2545 10.896 23.542 10.6815L55.5818 5.34145C56.3559 5.21273 57.1475 5.43143 57.7462 5.93857C58.3445 6.44587 58.69 7.19037 58.69 7.97495L58.69 42.685C58.69 44.1596 57.4946 45.355 56.02 45.355C54.5454 45.355 53.35 44.1596 53.35 42.685Z" fill="#8000FF"/>
<path d="M21.34 47.9999C21.34 45.0507 18.9492 42.6599 16 42.6599C13.0508 42.6599 10.66 45.0507 10.66 47.9999C10.66 50.9492 13.0508 53.3399 16 53.3399C18.9492 53.3399 21.34 50.9492 21.34 47.9999ZM26.68 47.9999C26.68 53.8982 21.8984 58.6799 16 58.6799C10.1016 58.6799 5.32001 53.8982 5.32001 47.9999C5.32001 42.1016 10.1016 37.3199 16 37.3199C21.8984 37.3199 26.68 42.1016 26.68 47.9999Z" fill="#8000FF"/>
<path d="M53.34 42.67C53.34 39.7207 50.9493 37.33 48 37.33C45.0507 37.33 42.66 39.7207 42.66 42.67C42.66 45.6193 45.0507 48.01 48 48.01C50.9493 48.01 53.34 45.6193 53.34 42.67ZM58.68 42.67C58.68 48.5683 53.8983 53.35 48 53.35C42.1017 53.35 37.32 48.5683 37.32 42.67C37.32 36.7717 42.1017 31.99 48 31.99C53.8983 31.99 58.68 36.7717 58.68 42.67Z" fill="#8000FF"/>
</svg>
