<svg width="20" height="20" viewBox="0 0 20 20" fill="none" xmlns="http://www.w3.org/2000/svg">
<path d="M17.4701 9.16999C17.4701 7.43886 16.707 5.75812 15.314 4.50449C13.9182 3.24829 12.0078 2.53 10.0001 2.53C8.01895 2.53 6.11868 3.31676 4.71778 4.71766C3.31688 6.11856 2.53012 8.01883 2.53012 9.99999C2.53012 11.9811 3.31688 13.8814 4.71778 15.2824C6.11868 16.6832 8.01895 17.47 10.0001 17.47H10.2076C10.3232 17.47 10.4368 17.4375 10.5351 17.3768C10.6333 17.316 10.7128 17.2288 10.7645 17.1255C10.816 17.0222 10.8381 16.9066 10.8277 16.7916C10.8199 16.7053 10.7938 16.6221 10.7523 16.5468L10.7053 16.4738L10.4565 16.1423C10.2021 15.8032 10.0471 15.3997 10.009 14.9776C9.97098 14.5555 10.0514 14.1311 10.2408 13.752C10.4304 13.3729 10.7225 13.0541 11.083 12.8312C11.4436 12.6084 11.8587 12.49 12.2826 12.49H14.1501L14.3146 12.4859C15.1352 12.4453 15.9137 12.1011 16.4974 11.5173C17.1201 10.8947 17.4701 10.0505 17.4701 9.16999ZM19.1301 9.16999C19.1301 10.4908 18.6051 11.7571 17.6711 12.691C16.7957 13.5665 15.6281 14.0824 14.3974 14.1435L14.1501 14.15H12.2826C12.167 14.15 12.0535 14.1824 11.9552 14.2432C11.8569 14.304 11.7774 14.3912 11.7258 14.4944C11.6742 14.5978 11.6521 14.7134 11.6625 14.8284C11.6729 14.9436 11.7156 15.0537 11.7849 15.1462L12.0338 15.4777L12.1246 15.6081C12.325 15.9182 12.4479 16.2731 12.4812 16.6424C12.5192 17.0645 12.4388 17.4889 12.2494 17.868C12.0598 18.2471 11.7678 18.5659 11.4072 18.7888C11.0467 19.0116 10.6315 19.13 10.2076 19.13H10.0001C7.57869 19.13 5.25632 18.1682 3.54411 16.456C1.8319 14.7438 0.870117 12.4214 0.870117 9.99999C0.870117 7.57857 1.8319 5.2562 3.54411 3.54399C5.25632 1.83178 7.57869 0.869995 10.0001 0.869995C12.395 0.869995 14.7072 1.72528 16.4245 3.27084C18.1447 4.81899 19.1301 6.9388 19.1301 9.16999Z" fill="#36E270"/>
<path d="M11.25 5.835C11.4791 5.835 11.665 5.6492 11.665 5.42C11.665 5.19081 11.4791 5.005 11.25 5.005C11.0208 5.005 10.835 5.19081 10.835 5.42C10.835 5.6492 11.0208 5.835 11.25 5.835Z" fill="#36E270"/>
<path d="M11.2499 5.00499C11.0207 5.00499 10.8349 5.19079 10.8349 5.41999C10.8349 5.64918 11.0207 5.83499 11.2499 5.83499C11.479 5.83499 11.6649 5.64918 11.6649 5.41999C11.6649 5.19079 11.479 5.00499 11.2499 5.00499ZM12.4949 5.41999C12.4949 6.10758 11.9375 6.66499 11.2499 6.66499C10.5623 6.66499 10.0049 6.10758 10.0049 5.41999C10.0049 4.73239 10.5623 4.17499 11.2499 4.17499C11.9375 4.17499 12.4949 4.73239 12.4949 5.41999Z" fill="#36E270"/>
<path d="M14.58 9.16502C14.8092 9.16502 14.995 8.97918 14.995 8.75002C14.995 8.52086 14.8092 8.33502 14.58 8.33502C14.3509 8.33502 14.165 8.52086 14.165 8.75002C14.165 8.97918 14.3509 9.16502 14.58 9.16502Z" fill="#36E270"/>
<path d="M14.58 8.335C14.3508 8.335 14.165 8.52084 14.165 8.75C14.165 8.97917 14.3508 9.165 14.58 9.165C14.8091 9.165 14.995 8.97917 14.995 8.75C14.995 8.52084 14.8091 8.335 14.58 8.335ZM15.825 8.75C15.825 9.43758 15.2675 9.995 14.58 9.995C13.8924 9.995 13.335 9.43758 13.335 8.75C13.335 8.06241 13.8924 7.505 14.58 7.505C15.2675 7.505 15.825 8.06241 15.825 8.75Z" fill="#36E270"/>
<path d="M5.41988 10.835C5.64908 10.835 5.83488 10.6492 5.83488 10.42C5.83488 10.1908 5.64908 10.005 5.41988 10.005C5.19069 10.005 5.00488 10.1908 5.00488 10.42C5.00488 10.6492 5.19069 10.835 5.41988 10.835Z" fill="#36E270"/>
<path d="M5.42029 10.005C5.1911 10.005 5.00529 10.1908 5.00529 10.42C5.00529 10.6492 5.1911 10.835 5.42029 10.835C5.64949 10.835 5.83529 10.6492 5.83529 10.42C5.83529 10.1908 5.64949 10.005 5.42029 10.005ZM6.66529 10.42C6.66529 11.1076 6.10789 11.665 5.42029 11.665C4.7327 11.665 4.17529 11.1076 4.17529 10.42C4.17529 9.73242 4.7327 9.17499 5.42029 9.17499C6.10789 9.17499 6.66529 9.73242 6.66529 10.42Z" fill="#36E270"/>
<path d="M7.08004 6.66502C7.30924 6.66502 7.49504 6.47922 7.49504 6.25002C7.49504 6.02083 7.30924 5.83502 7.08004 5.83502C6.85084 5.83502 6.66504 6.02083 6.66504 6.25002C6.66504 6.47922 6.85084 6.66502 7.08004 6.66502Z" fill="#36E270"/>
<path d="M7.07996 5.835C6.85076 5.835 6.66496 6.02081 6.66496 6.25C6.66496 6.4792 6.85076 6.665 7.07996 6.665C7.30916 6.665 7.49496 6.4792 7.49496 6.25C7.49496 6.02081 7.30916 5.835 7.07996 5.835ZM8.32496 6.25C8.32496 6.9376 7.76756 7.495 7.07996 7.495C6.39236 7.495 5.83496 6.9376 5.83496 6.25C5.83496 5.56241 6.39236 5.005 7.07996 5.005C7.76756 5.005 8.32496 5.56241 8.32496 6.25Z" fill="#36E270"/>
</svg>
