<svg width="64" height="64" viewBox="0 0 64 64" fill="none" xmlns="http://www.w3.org/2000/svg">
<path d="M46.1023 35.4323C47.0798 34.4549 48.6257 34.3945 49.6742 35.2497L49.8777 35.4323L60.5577 46.1123L60.7403 46.3158C61.5955 47.3643 61.5352 48.9102 60.5577 49.8877L49.8777 60.5677C48.8351 61.6106 47.1449 61.6106 46.1023 60.5677C45.0594 59.5251 45.0594 57.835 46.1023 56.7923L54.8943 48L46.1023 39.2077L45.9197 39.0045C45.0642 37.9558 45.1246 36.4098 46.1023 35.4323Z" fill="#8000FF"/>
<path d="M46.1023 3.43224C47.0798 2.45471 48.6257 2.39438 49.6742 3.24972L49.8777 3.43224L60.5577 14.1122L60.7403 14.3156C61.5955 15.3643 61.5352 16.9102 60.5577 17.8878L49.8777 28.5677C48.8351 29.6106 47.1449 29.6106 46.1023 28.5677C45.0594 27.525 45.0594 25.8349 46.1023 24.7922L54.8943 16L46.1023 7.20778L45.9197 7.00441C45.0642 5.95571 45.1246 4.40975 46.1023 3.43224Z" fill="#8000FF"/>
<path d="M58.7 13.3097L58.9737 13.3227C60.3196 13.4597 61.37 14.5976 61.37 15.9797C61.37 17.3619 60.3199 18.4996 58.9737 18.6367L58.7 18.6497L42.7347 18.6497C41.4403 18.6409 40.1622 18.9461 39.0114 19.5388C37.8684 20.1276 36.8832 20.9824 36.1406 22.0315L21.6329 44.9116L21.5625 45.016C20.3219 46.7811 18.6725 48.2205 16.7544 49.2087C14.8415 50.1939 12.7186 50.6991 10.567 50.6871V50.6897H5.3C3.82542 50.6897 2.63 49.4944 2.63 48.0197C2.63014 46.5451 3.8255 45.3497 5.3 45.3497H10.5852L11.0702 45.3393C12.1978 45.2787 13.3016 44.9794 14.3086 44.4606C15.4462 43.8746 16.425 43.0234 17.1664 41.981L31.6871 19.0877L31.7576 18.9834C32.9981 17.2184 34.6476 15.7787 36.5657 14.7907C38.4785 13.8054 40.6014 13.3004 42.7529 13.3123L58.7 13.3097Z" fill="#8000FF"/>
<path d="M10.5751 13.3226C13.0569 13.3087 15.4946 13.9865 17.6125 15.2808C19.47 16.416 21.0181 17.9859 22.126 19.849L22.5718 20.6651L22.684 20.9154C23.1673 22.1788 22.6241 23.6279 21.3907 24.2503C20.1562 24.8724 18.6665 24.4471 17.9385 23.3065L17.8029 23.0692L17.5343 22.579C16.8697 21.4614 15.942 20.5196 14.8278 19.8386C13.7136 19.1577 12.4516 18.76 11.154 18.6783L10.5934 18.6626H5.31072C3.83613 18.6626 2.64072 17.4672 2.64072 15.9926C2.64085 14.5182 3.83621 13.3226 5.31072 13.3226L10.5751 13.3226Z" fill="#8000FF"/>
<path d="M31.1144 39.8968C32.195 39.0346 33.7401 39.146 34.6866 40.1133L34.8663 40.3168L35.8259 41.5185L35.9693 41.7169L36.251 42.1185C36.938 43.034 37.8164 43.7926 38.8246 44.3426C39.9764 44.9706 41.2647 45.3067 42.5765 45.3203L58.68 45.3203L58.9513 45.3334C60.2983 45.4693 61.35 46.6073 61.35 47.9903C61.35 49.3731 60.2983 50.5111 58.9513 50.6473L58.68 50.6603L42.5217 50.6603C40.3347 50.6379 38.1867 50.078 36.2667 49.0306C34.394 48.0093 32.7984 46.5515 31.6046 44.7858L30.6944 43.6489L30.5329 43.4246C29.8013 42.2875 30.0352 40.7589 31.1144 39.8968Z" fill="#8000FF"/>
</svg>
