<svg width="20" height="20" viewBox="0 0 20 20" fill="none" xmlns="http://www.w3.org/2000/svg">
<path d="M1.7002 15.83L1.7002 12.51C1.7002 12.0516 2.0718 11.68 2.5302 11.68C2.98859 11.68 3.3602 12.0516 3.3602 12.51L3.3602 15.83L3.36425 15.9118C3.38308 16.1019 3.46712 16.2806 3.60336 16.4168C3.75902 16.5725 3.97006 16.66 4.1902 16.66L15.8102 16.66C16.0303 16.66 16.2414 16.5725 16.397 16.4168C16.5527 16.2612 16.6402 16.0501 16.6402 15.83V12.51C16.6402 12.0516 17.0118 11.68 17.4702 11.68C17.9286 11.68 18.3002 12.0516 18.3002 12.51L18.3002 15.83C18.3002 16.4904 18.0377 17.1235 17.5707 17.5905C17.1038 18.0575 16.4706 18.32 15.8102 18.32L4.1902 18.32C3.52981 18.32 2.89666 18.0575 2.42969 17.5905C2.02116 17.182 1.76901 16.6463 1.71235 16.0764L1.7002 15.83Z" fill="#36E270"/>
<path d="M9.47632 1.8614C9.80235 1.59551 10.2829 1.61426 10.5868 1.91814L14.7368 6.06814L14.7936 6.13136C15.0594 6.45736 15.0406 6.93794 14.7368 7.24181C14.4329 7.54569 13.9523 7.56444 13.6263 7.29855L13.5632 7.24181L9.99997 3.67865L6.4368 7.24181C6.11266 7.56595 5.58726 7.56595 5.26312 7.24181C4.93899 6.91768 4.93899 6.39227 5.26312 6.06814L9.41316 1.91814L9.47632 1.8614Z" fill="#36E270"/>
<path d="M9.17041 12.48L9.17041 2.52C9.17041 2.06161 9.542 1.69 10.0004 1.69C10.4588 1.69 10.8304 2.06161 10.8304 2.52L10.8304 12.48C10.8304 12.9384 10.4588 13.31 10.0004 13.31C9.542 13.31 9.17041 12.9384 9.17041 12.48Z" fill="#36E270"/>
</svg>
