<svg width="20" height="20" viewBox="0 0 20 20" fill="none" xmlns="http://www.w3.org/2000/svg">
<path d="M8.39794 2.53886C8.60494 2.51352 8.81501 2.5343 9.01313 2.59964L9.11124 2.63611L9.20602 2.67908C9.39244 2.77287 9.5557 2.90704 9.68427 3.07138L9.74586 3.15649L9.80097 3.24565C9.9209 3.45723 9.98457 3.69672 9.98498 3.9411L9.98498 16.0563L9.98091 16.1609C9.96323 16.4041 9.88347 16.6395 9.74752 16.8433C9.59206 17.0763 9.3707 17.2581 9.11199 17.3653C8.85319 17.4727 8.56809 17.5004 8.29337 17.4456C8.01863 17.3909 7.76584 17.2564 7.56793 17.0582L4.75938 14.248C4.72842 14.2169 4.69136 14.1919 4.65077 14.1751C4.61019 14.1582 4.56662 14.1498 4.52271 14.1499L2.51498 14.1499C2.07472 14.1499 1.65262 13.975 1.34131 13.6636C1.06883 13.3911 0.900747 13.0338 0.86309 12.6537L0.85498 12.4899L0.85498 7.50993C0.854989 7.06968 1.03 6.64757 1.34131 6.33626C1.65262 6.02496 2.07472 5.84993 2.51498 5.84993L4.52271 5.84993L4.58836 5.84345C4.60965 5.83922 4.63062 5.83316 4.65077 5.82481C4.69136 5.80799 4.72842 5.78302 4.75938 5.75186L7.57036 2.9417L7.64655 2.87037C7.8311 2.71159 8.05423 2.6027 8.29418 2.55507L8.39794 2.53886ZM2.51498 12.4899L4.52028 12.4899C4.78302 12.4895 5.04348 12.541 5.28624 12.6415C5.52895 12.7421 5.74924 12.8899 5.93468 13.076L8.32498 15.4663L8.32498 4.53361L5.93468 6.92391C5.74925 7.11001 5.52896 7.2578 5.28624 7.35837C5.04348 7.45892 4.78302 7.50958 4.52028 7.50913L2.51498 7.50993L2.51498 12.4899Z" fill="#36E270"/>
<path d="M13.3348 10C13.3348 9.37145 13.1567 8.7575 12.8234 8.22894L12.671 8.00766L12.6232 7.93715C12.4063 7.57686 12.4934 7.10391 12.8371 6.84614C13.1809 6.58843 13.6593 6.63743 13.9444 6.94666L13.9986 7.01231L14.1162 7.17604C14.6873 8.00545 14.9948 8.98982 14.9948 10C14.9948 11.0774 14.6451 12.1256 13.9986 12.9877C13.7237 13.3544 13.2038 13.4287 12.8371 13.1538C12.4704 12.8788 12.3961 12.359 12.671 11.9923C13.102 11.4177 13.3348 10.7183 13.3348 10Z" fill="#36E270"/>
<path d="M17.4952 10.0002C17.4952 9.12833 17.3239 8.26468 16.9902 7.45914C16.6983 6.75429 16.2872 6.10553 15.7761 5.54138L15.5508 5.30471L15.494 5.24149C15.2281 4.91548 15.2469 4.43491 15.5508 4.13103C15.8546 3.82716 16.3352 3.8084 16.6612 4.0743L16.7244 4.13103L17.0057 4.42688C17.6448 5.13212 18.1589 5.94253 18.5238 6.82367C18.9409 7.83067 19.1552 8.9102 19.1552 10.0002L19.1455 10.4079C19.0988 11.3584 18.8888 12.2949 18.5238 13.1759C18.1067 14.1829 17.4951 15.0987 16.7244 15.8693L16.6612 15.9261C16.3353 16.1918 15.8545 16.173 15.5508 15.8693C15.2266 15.5452 15.2266 15.019 15.5508 14.6949L15.7761 14.459C16.2873 13.8948 16.6982 13.2461 16.9902 12.5413C17.2822 11.8365 17.4496 11.0871 17.4872 10.3268L17.4952 10.0002Z" fill="#36E270"/>
</svg>
