<svg width="20" height="20" viewBox="0 0 20 20" fill="none" xmlns="http://www.w3.org/2000/svg">
<path d="M11.1213 0.873521C11.3308 0.852915 11.5424 0.885888 11.7357 0.969162L11.8306 1.01537L11.9214 1.06886C12.0978 1.1835 12.2421 1.34116 12.3412 1.52682L12.3874 1.62166L12.4247 1.72054C12.4909 1.92003 12.5059 2.13313 12.4677 2.3398L12.4433 2.44274C12.4404 2.45348 12.4378 2.46455 12.4344 2.47516L10.8409 7.47137L10.8271 7.51028L16.6395 7.51028C16.9528 7.50967 17.2601 7.59741 17.5254 7.76398C17.7915 7.93098 18.0043 8.17043 18.1399 8.45378C18.2754 8.73706 18.3283 9.05287 18.2914 9.36479C18.2592 9.63769 18.1597 9.89773 18.0029 10.1218L17.9316 10.2159L17.8829 10.271L9.66559 18.7371L9.66476 18.7363C9.48324 18.9305 9.24528 19.0632 8.98308 19.1116C8.70544 19.163 8.41835 19.1184 8.16931 18.9852C7.92031 18.852 7.72389 18.6375 7.61247 18.3781C7.50117 18.1187 7.48168 17.8292 7.55654 17.557L7.56545 17.5246L9.15895 12.5284L9.17273 12.4903L3.35953 12.4903C3.04652 12.4907 2.73956 12.4022 2.47441 12.2358C2.20855 12.0688 1.99558 11.83 1.86002 11.5468C1.72442 11.2634 1.67158 10.9469 1.70844 10.6349C1.74534 10.3231 1.87048 10.0277 2.06833 9.78385L2.11696 9.72874L10.3343 1.2634C10.5158 1.06914 10.7545 0.937439 11.0167 0.888917L11.1213 0.873521ZM3.36196 10.8303L9.1695 10.8303C9.43725 10.8298 9.70119 10.894 9.93874 11.0175C10.1769 11.1414 10.3819 11.3208 10.5353 11.5411C10.6887 11.7615 10.7863 12.0164 10.8198 12.2828C10.8516 12.5356 10.8219 12.7913 10.7388 13.0317L10.7412 13.0326L9.68991 16.3282L16.6379 9.17032L10.8295 9.17032C10.5622 9.17065 10.2984 9.10641 10.0612 8.98307C9.82295 8.85915 9.61803 8.67896 9.46456 8.45859C9.31126 8.23836 9.21365 7.98404 9.18004 7.71778C9.14816 7.46461 9.17688 7.20798 9.2603 6.96721H9.25872L10.3092 3.67072L3.36196 10.8303Z" fill="#8000FF"/>
</svg>
